<?xml version="1.0" encoding="UTF-8" standalone="no"?>
<svg
   xmlns:dc="http://purl.org/dc/elements/1.1/"
   xmlns:cc="http://creativecommons.org/ns#"
   xmlns:rdf="http://www.w3.org/1999/02/22-rdf-syntax-ns#"
   xmlns:svg="http://www.w3.org/2000/svg"
   xmlns="http://www.w3.org/2000/svg"
   xmlns:sodipodi="http://sodipodi.sourceforge.net/DTD/sodipodi-0.dtd"
   xmlns:inkscape="http://www.inkscape.org/namespaces/inkscape"
   inkscape:export-ydpi="96"
   inkscape:export-xdpi="96"
   inkscape:export-filename="C:\Users\nate\Projects\Swapper\Resources\TrayIconLightLeft.png"
   sodipodi:docname="TrayIcon-Source.svg"
   inkscape:version="1.0 (4035a4fb49, 2020-05-01)"
   id="svg8"
   version="1.1"
   viewBox="0 0 67.733332 67.733335"
   height="256"
   width="256">
  <defs
     id="defs2" />
  <sodipodi:namedview
     inkscape:window-maximized="1"
     inkscape:window-y="-8"
     inkscape:window-x="-8"
     inkscape:window-height="1017"
     inkscape:window-width="1920"
     inkscape:pagecheckerboard="true"
     units="px"
     showgrid="false"
     inkscape:document-rotation="0"
     inkscape:current-layer="layer1"
     inkscape:document-units="px"
     inkscape:cy="115.53288"
     inkscape:cx="31.041783"
     inkscape:zoom="1.979899"
     inkscape:pageshadow="2"
     inkscape:pageopacity="0.0"
     borderopacity="1.0"
     bordercolor="#666666"
     pagecolor="#ffffff"
     id="base" />
  <metadata
     id="metadata5">
    <rdf:RDF>
      <cc:Work
         rdf:about="">
        <dc:format>image/svg+xml</dc:format>
        <dc:type
           rdf:resource="http://purl.org/dc/dcmitype/StillImage" />
        <dc:title />
      </cc:Work>
    </rdf:RDF>
  </metadata>
  <g
     style="display:none"
     id="layer1"
     inkscape:groupmode="layer"
     inkscape:label="dark">
    <path
       d="M 30.892654,0 C 20.080919,0 11.377083,8.9365572 11.377083,20.037377 v 2.722202 H 31.467778 V 0 Z m 5.073041,0 V 22.759579 H 56.35625 V 20.037377 C 56.35625,8.9365572 47.652415,0 36.84068,0 Z M 11.377083,27.377761 v 20.318196 c 0,11.100819 8.703836,20.037376 19.515571,20.037376 h 5.948026 c 10.811735,0 19.51557,-8.936557 19.51557,-20.037376 V 27.377761 Z"
       style="fill:#ffffff;fill-rule:evenodd;stroke-width:0.310993"
       id="rect12" />
  </g>
  <g
     inkscape:label="light"
     inkscape:groupmode="layer"
     id="g56"
     style="display:inline">
    <path
       id="path54"
       style="fill:#000000;fill-rule:evenodd;stroke-width:0.310993"
       d="M 30.892654,0 C 20.080919,0 11.377083,8.9365572 11.377083,20.037377 v 2.722202 H 31.467778 V 0 Z m 5.073041,0 V 22.759579 H 56.35625 V 20.037377 C 56.35625,8.9365572 47.652415,0 36.84068,0 Z M 11.377083,27.377761 v 20.318196 c 0,11.100819 8.703836,20.037376 19.515571,20.037376 h 5.948026 c 10.811735,0 19.51557,-8.936557 19.51557,-20.037376 V 27.377761 Z" />
  </g>
  <g
     style="display:none"
     inkscape:label="right"
     id="layer2"
     inkscape:groupmode="layer">
    <path
       d="M 35.965695,0 V 22.759579 H 56.35625 V 20.037377 C 56.35625,8.9365582 47.652415,0 36.84068,0 Z"
       style="fill:#ff0000;fill-rule:evenodd;stroke-width:0.310993"
       id="path33" />
  </g>
  <g
     style="display:inline"
     inkscape:label="left"
     id="layer3"
     inkscape:groupmode="layer">
    <path
       d="M 30.892654,0 C 20.080919,0 11.377083,8.9365582 11.377083,20.037377 v 2.722202 H 31.467778 V 0 Z"
       style="fill:#ff0000;fill-rule:evenodd;stroke-width:0.310993"
       id="path44" />
  </g>
</svg>
